mtllib Hauler.mtl
o hauler_hull
usemtl hull
v -22.37142896652222 -4.391428334372384 23.199999604906356
v -12.014286109379361 -4.391428334372384 -23.199999604906356
v 0 -4.391428334372384 -23.199999604906356
v 12.014286109379361 -4.391428334372384 -23.199999604906356
v 22.37142896652222 -4.391428334372384 23.199999604906356
v 0 -4.391428334372384 23.199999604906356
v -22.37142896652222 -4.391428334372384 23.199999604906356
v 0 -4.391428334372384 -23.199999604906356
v 12.014286109379361 -4.391428334372384 -23.199999604906356
v 12.014286109379361 -4.391428334372384 -23.199999604906356
v 0 -4.391428334372384 23.199999604906356
v -22.37142896652222 -4.391428334372384 23.199999604906356
v 0 3.0657143252236505 -23.199999604906356
v -12.014286109379361 3.0657143252236505 -23.199999604906356
v -22.37142896652222 3.0657143252236505 23.199999604906356
v 0 3.0657143252236505 23.199999604906356
v 22.37142896652222 3.0657143252236505 23.199999604906356
v 12.014286109379361 3.0657143252236505 -23.199999604906356
v 12.014286109379361 3.0657143252236505 -23.199999604906356
v 0 3.0657143252236505 -23.199999604906356
v -22.37142896652222 3.0657143252236505 23.199999604906356
v -22.37142896652222 3.0657143252236505 23.199999604906356
v 0 3.0657143252236505 23.199999604906356
v 12.014286109379361 3.0657143252236505 -23.199999604906356
v -12.014286109379361 -4.391428334372384 -23.199999604906356
v -22.37142896652222 -4.391428334372384 23.199999604906356
v -12.54549642971584 -3.7285713297980174 -23.862858091081893
v -22.37142896652222 -4.391428334372384 23.199999604906356
v -23.102932998112273 -3.7285713297980174 23.78622375215803
v -12.54549642971584 -3.7285713297980174 -23.862858091081893
v -12.54549642971584 -3.7285713297980174 -23.862858091081893
v -23.102932998112273 -3.7285713297980174 23.78622375215803
v -12.54549642971584 2.4028573206492836 -23.862858091081893
v -23.102932998112273 -3.7285713297980174 23.78622375215803
v -23.102932998112273 2.4028573206492836 23.78622375215803
v -12.54549642971584 2.4028573206492836 -23.862858091081893
v -12.54549642971584 2.4028573206492836 -23.862858091081893
v -23.102932998112273 2.4028573206492836 23.78622375215803
v -12.014286109379361 3.0657143252236505 -23.199999604906356
v -23.102932998112273 2.4028573206492836 23.78622375215803
v -22.37142896652222 3.0657143252236505 23.199999604906356
v -12.014286109379361 3.0657143252236505 -23.199999604906356
v -22.37142896652222 -4.391428334372384 23.199999604906356
v 0 -4.391428334372384 23.199999604906356
v -23.102932998112273 -3.7285713297980174 23.78622375215803
v 0 -4.391428334372384 23.199999604906356
v 0 -3.7285713297980174 23.862858091081893
v -23.102932998112273 -3.7285713297980174 23.78622375215803
v -23.102932998112273 -3.7285713297980174 23.78622375215803
v 0 -3.7285713297980174 23.862858091081893
v -23.102932998112273 2.4028573206492836 23.78622375215803
v 0 -3.7285713297980174 23.862858091081893
v 0 2.4028573206492836 23.862858091081893
v -23.102932998112273 2.4028573206492836 23.78622375215803
v -23.102932998112273 2.4028573206492836 23.78622375215803
v 0 2.4028573206492836 23.862858091081893
v -22.37142896652222 3.0657143252236505 23.199999604906356
v 0 2.4028573206492836 23.862858091081893
v 0 3.0657143252236505 23.199999604906356
v -22.37142896652222 3.0657143252236505 23.199999604906356
v 0 -4.391428334372384 23.199999604906356
v 22.37142896652222 -4.391428334372384 23.199999604906356
v 0 -3.7285713297980174 23.862858091081893
v 22.37142896652222 -4.391428334372384 23.199999604906356
v 23.102932998112273 -3.7285713297980174 23.78622375215803
v 0 -3.7285713297980174 23.862858091081893
v 0 -3.7285713297980174 23.862858091081893
v 23.102932998112273 -3.7285713297980174 23.78622375215803
v 0 2.4028573206492836 23.862858091081893
v 23.102932998112273 -3.7285713297980174 23.78622375215803
v 23.102932998112273 2.4028573206492836 23.78622375215803
v 0 2.4028573206492836 23.862858091081893
v 0 2.4028573206492836 23.862858091081893
v 23.102932998112273 2.4028573206492836 23.78622375215803
v 0 3.0657143252236505 23.199999604906356
v 23.102932998112273 2.4028573206492836 23.78622375215803
v 22.37142896652222 3.0657143252236505 23.199999604906356
v 0 3.0657143252236505 23.199999604906356
v 22.37142896652222 -4.391428334372384 23.199999604906356
v 12.014286109379361 -4.391428334372384 -23.199999604906356
v 23.102932998112273 -3.7285713297980174 23.78622375215803
v 12.014286109379361 -4.391428334372384 -23.199999604906356
v 12.54549642971584 -3.7285713297980174 -23.862858091081893
v 23.102932998112273 -3.7285713297980174 23.78622375215803
v 23.102932998112273 -3.7285713297980174 23.78622375215803
v 12.54549642971584 -3.7285713297980174 -23.862858091081893
v 23.102932998112273 2.4028573206492836 23.78622375215803
v 12.54549642971584 -3.7285713297980174 -23.862858091081893
v 12.54549642971584 2.4028573206492836 -23.862858091081893
v 23.102932998112273 2.4028573206492836 23.78622375215803
v 23.102932998112273 2.4028573206492836 23.78622375215803
v 12.54549642971584 2.4028573206492836 -23.862858091081893
v 22.37142896652222 3.0657143252236505 23.199999604906356
v 12.54549642971584 2.4028573206492836 -23.862858091081893
v 12.014286109379361 3.0657143252236505 -23.199999604906356
v 22.37142896652222 3.0657143252236505 23.199999604906356
v 12.014286109379361 -4.391428334372384 -23.199999604906356
v 0 -4.391428334372384 -23.199999604906356
v 12.54549642971584 -3.7285713297980174 -23.862858091081893
v 0 -4.391428334372384 -23.199999604906356
v 0 -3.7285713297980174 -23.862858091081893
v 12.54549642971584 -3.7285713297980174 -23.862858091081893
v 12.54549642971584 -3.7285713297980174 -23.862858091081893
v 0 -3.7285713297980174 -23.862858091081893
v 12.54549642971584 2.4028573206492836 -23.862858091081893
v 0 -3.7285713297980174 -23.862858091081893
v 0 2.4028573206492836 -23.862858091081893
v 12.54549642971584 2.4028573206492836 -23.862858091081893
v 12.54549642971584 2.4028573206492836 -23.862858091081893
v 0 2.4028573206492836 -23.862858091081893
v 12.014286109379361 3.0657143252236505 -23.199999604906356
v 0 2.4028573206492836 -23.862858091081893
v 0 3.0657143252236505 -23.199999604906356
v 12.014286109379361 3.0657143252236505 -23.199999604906356
v 0 -4.391428334372384 -23.199999604906356
v -12.014286109379361 -4.391428334372384 -23.199999604906356
v 0 -3.7285713297980174 -23.862858091081893
v -12.014286109379361 -4.391428334372384 -23.199999604906356
v -12.54549642971584 -3.7285713297980174 -23.862858091081893
v 0 -3.7285713297980174 -23.862858091081893
v 0 -3.7285713297980174 -23.862858091081893
v -12.54549642971584 -3.7285713297980174 -23.862858091081893
v 0 2.4028573206492836 -23.862858091081893
v -12.54549642971584 -3.7285713297980174 -23.862858091081893
v -12.54549642971584 2.4028573206492836 -23.862858091081893
v 0 2.4028573206492836 -23.862858091081893
v 0 2.4028573206492836 -23.862858091081893
v -12.54549642971584 2.4028573206492836 -23.862858091081893
v 0 3.0657143252236505 -23.199999604906356
v -12.54549642971584 2.4028573206492836 -23.862858091081893
v -12.014286109379361 3.0657143252236505 -23.199999604906356
v 0 3.0657143252236505 -23.199999604906356
vt -2.700000047683716 -2.799999952316284
vt -1.4500000476837158 2.799999952316284
vt 0 2.799999952316284
vt 1.4500000476837158 2.799999952316284
vt 2.700000047683716 -2.799999952316284
vt 0 -2.799999952316284
vt -2.700000047683716 -2.799999952316284
vt 0 2.799999952316284
vt 1.4500000476837158 2.799999952316284
vt 1.4500000476837158 2.799999952316284
vt 0 -2.799999952316284
vt -2.700000047683716 -2.799999952316284
vt 0 2.799999952316284
vt -1.4500000476837158 2.799999952316284
vt -2.700000047683716 -2.799999952316284
vt 0 -2.799999952316284
vt 2.700000047683716 -2.799999952316284
vt 1.4500000476837158 2.799999952316284
vt 1.4500000476837158 2.799999952316284
vt 0 2.799999952316284
vt -2.700000047683716 -2.799999952316284
vt -2.700000047683716 -2.799999952316284
vt 0 -2.799999952316284
vt 1.4500000476837158 2.799999952316284
vt 2.799999952316284 1.0800000429153442
vt -2.799999952316284 1.0800000429153442
vt 2.880000114440918 1
vt -2.799999952316284 1.0800000429153442
vt -2.870751142501831 1
vt 2.880000114440918 1
vt 2.880000114440918 1
vt -2.870751142501831 1
vt 2.880000114440918 0.25999999046325684
vt -2.870751142501831 1
vt -2.870751142501831 0.25999999046325684
vt 2.880000114440918 0.25999999046325684
vt 2.880000114440918 0.25999999046325684
vt -2.870751142501831 0.25999999046325684
vt 2.799999952316284 0.18000000715255737
vt -2.870751142501831 0.25999999046325684
vt -2.799999952316284 0.18000000715255737
vt 2.799999952316284 0.18000000715255737
vt -2.700000047683716 1.0800000429153442
vt 0 1.0800000429153442
vt -2.78828501701355 1
vt 0 1.0800000429153442
vt 0 1
vt -2.78828501701355 1
vt -2.78828501701355 1
vt 0 1
vt -2.78828501701355 0.25999999046325684
vt 0 1
vt 0 0.25999999046325684
vt -2.78828501701355 0.25999999046325684
vt -2.78828501701355 0.25999999046325684
vt 0 0.25999999046325684
vt -2.700000047683716 0.18000000715255737
vt 0 0.25999999046325684
vt 0 0.18000000715255737
vt -2.700000047683716 0.18000000715255737
vt 0 1.0800000429153442
vt 2.700000047683716 1.0800000429153442
vt 0 1
vt 2.700000047683716 1.0800000429153442
vt 2.78828501701355 1
vt 0 1
vt 0 1
vt 2.78828501701355 1
vt 0 0.25999999046325684
vt 2.78828501701355 1
vt 2.78828501701355 0.25999999046325684
vt 0 0.25999999046325684
vt 0 0.25999999046325684
vt 2.78828501701355 0.25999999046325684
vt 0 0.18000000715255737
vt 2.78828501701355 0.25999999046325684
vt 2.700000047683716 0.18000000715255737
vt 0 0.18000000715255737
vt -2.799999952316284 1.0800000429153442
vt 2.799999952316284 1.0800000429153442
vt -2.870751142501831 1
vt 2.799999952316284 1.0800000429153442
vt 2.880000114440918 1
vt -2.870751142501831 1
vt -2.870751142501831 1
vt 2.880000114440918 1
vt -2.870751142501831 0.25999999046325684
vt 2.880000114440918 1
vt 2.880000114440918 0.25999999046325684
vt -2.870751142501831 0.25999999046325684
vt -2.870751142501831 0.25999999046325684
vt 2.880000114440918 0.25999999046325684
vt -2.799999952316284 0.18000000715255737
vt 2.880000114440918 0.25999999046325684
vt 2.799999952316284 0.18000000715255737
vt -2.799999952316284 0.18000000715255737
vt 1.4500000476837158 1.0800000429153442
vt 0 1.0800000429153442
vt 1.5141116380691528 1
vt 0 1.0800000429153442
vt 0 1
vt 1.5141116380691528 1
vt 1.5141116380691528 1
vt 0 1
vt 1.5141116380691528 0.25999999046325684
vt 0 1
vt 0 0.25999999046325684
vt 1.5141116380691528 0.25999999046325684
vt 1.5141116380691528 0.25999999046325684
vt 0 0.25999999046325684
vt 1.4500000476837158 0.18000000715255737
vt 0 0.25999999046325684
vt 0 0.18000000715255737
vt 1.4500000476837158 0.18000000715255737
vt 0 1.0800000429153442
vt -1.4500000476837158 1.0800000429153442
vt 0 1
vt -1.4500000476837158 1.0800000429153442
vt -1.5141116380691528 1
vt 0 1
vt 0 1
vt -1.5141116380691528 1
vt 0 0.25999999046325684
vt -1.5141116380691528 1
vt -1.5141116380691528 0.25999999046325684
vt 0 0.25999999046325684
vt 0 0.25999999046325684
vt -1.5141116380691528 0.25999999046325684
vt 0 0.18000000715255737
vt -1.5141116380691528 0.25999999046325684
vt -1.4500000476837158 0.18000000715255737
vt 0 0.18000000715255737
vn 0 -1 -6.123234262925839e-17
vn 0 -1 -6.123234262925839e-17
vn 0 -1 -6.123234262925839e-17
vn 0 -1 -6.123234262925839e-17
vn 0 -1 -6.123234262925839e-17
vn 0 -1 -6.123234262925839e-17
vn 0 -1 -6.123234262925839e-17
vn 0 -1 -6.123234262925839e-17
vn 0 -1 -6.123234262925839e-17
vn 0 -1 -6.123234262925839e-17
vn 0 -1 -6.123234262925839e-17
vn 0 -1 -6.123234262925839e-17
vn 0 1 6.123234262925839e-17
vn 0 1 6.123234262925839e-17
vn 0 1 6.123234262925839e-17
vn 0 1 6.123234262925839e-17
vn 0 1 6.123234262925839e-17
vn 0 1 6.123234262925839e-17
vn 0 1 6.123234262925839e-17
vn 0 1 6.123234262925839e-17
vn 0 1 6.123234262925839e-17
vn 0 1 6.123234262925839e-17
vn 0 1 6.123234262925839e-17
vn 0 1 6.123234262925839e-17
vn -0.6901231461650439 -0.7071068341744374 -0.15404534459394154
vn -0.6901231461650439 -0.7071068341744374 -0.15404534459394154
vn -0.6901231461650439 -0.7071068341744374 -0.15404534459394154
vn -0.7307159296647099 -0.6632058017171197 -0.16190211457232787
vn -0.7307159296647099 -0.6632058017171197 -0.16190211457232787
vn -0.7307159296647099 -0.6632058017171197 -0.16190211457232787
vn -0.9763224567476941 1.3245795969000955e-17 -0.21632027285981986
vn -0.9763224567476941 1.3245795969000955e-17 -0.21632027285981986
vn -0.9763224567476941 1.3245795969000955e-17 -0.21632027285981986
vn -0.9763224567476941 1.3245795969000955e-17 -0.21632027285981986
vn -0.9763224567476941 1.3245795969000955e-17 -0.21632027285981986
vn -0.9763224567476941 1.3245795969000955e-17 -0.21632027285981986
vn -0.6907990394660289 0.7066611463292249 -0.1530578692569491
vn -0.6907990394660289 0.7066611463292249 -0.1530578692569491
vn -0.6907990394660289 0.7066611463292249 -0.1530578692569491
vn -0.7310888221045636 0.6624789283147526 -0.1631894718806903
vn -0.7310888221045636 0.6624789283147526 -0.1631894718806903
vn -0.7310888221045636 0.6624789283147526 -0.1631894718806903
vn 0 -0.662479120154492 0.7490803797719778
vn 0 -0.662479120154492 0.7490803797719778
vn 0 -0.662479120154492 0.7490803797719778
vn -0.002345522879529885 -0.7071055811754927 0.7071040910593646
vn -0.002345522879529885 -0.7071055811754927 0.7071040910593646
vn -0.002345522879529885 -0.7071055811754927 0.7071040910593646
vn -0.0033170645464552454 -6.123200404679063e-17 0.9999944985262643
vn -0.0033170645464552454 -6.123200404679063e-17 0.9999944985262643
vn -0.0033170645464552454 -6.123200404679063e-17 0.9999944985262643
vn -0.0033170645464552454 -6.123200404679063e-17 0.9999944985262643
vn -0.0033170645464552454 -6.123200404679063e-17 0.9999944985262643
vn -0.0033170645464552454 -6.123200404679063e-17 0.9999944985262643
vn -0.0024802431081766075 0.6640115998616549 0.7477181578932597
vn -0.0024802431081766075 0.6640115998616549 0.7477181578932597
vn -0.0024802431081766075 0.6640115998616549 0.7477181578932597
vn 0 0.7071075560465184 0.7071060063257277
vn 0 0.7071075560465184 0.7071060063257277
vn 0 0.7071075560465184 0.7071060063257277
vn 0 -0.7071074964419354 0.7071060659304362
vn 0 -0.7071074964419354 0.7071060659304362
vn 0 -0.7071074964419354 0.7071060659304362
vn 0.0024802430958019224 -0.664011536944055 0.7477182137673117
vn 0.0024802430958019224 -0.664011536944055 0.7477182137673117
vn 0.0024802430958019224 -0.664011536944055 0.7477182137673117
vn 0.0033170645464552454 -6.123200404679063e-17 0.9999944985262643
vn 0.0033170645464552454 -6.123200404679063e-17 0.9999944985262643
vn 0.0033170645464552454 -6.123200404679063e-17 0.9999944985262643
vn 0.0033170645464552454 -6.123200404679063e-17 0.9999944985262643
vn 0.0033170645464552454 -6.123200404679063e-17 0.9999944985262643
vn 0.0033170645464552454 -6.123200404679063e-17 0.9999944985262643
vn 0.002345522646700305 0.7071056407804588 0.7071040314550403
vn 0.002345522646700305 0.7071056407804588 0.7071040314550403
vn 0.002345522646700305 0.7071056407804588 0.7071040314550403
vn 0 0.6624792166241824 0.7490802944551469
vn 0 0.6624792166241824 0.7490802944551469
vn 0 0.6624792166241824 0.7490802944551469
vn 0.7310888787194413 -0.6624788660009187 -0.16318947121333152
vn 0.7310888787194413 -0.6624788660009187 -0.16318947121333152
vn 0.7310888787194413 -0.6624788660009187 -0.16318947121333152
vn 0.6907991272449095 -0.7066610559411045 -0.15305789040057483
vn 0.6907991272449095 -0.7066610559411045 -0.15305789040057483
vn 0.6907991272449095 -0.7066610559411045 -0.15305789040057483
vn 0.9763224567476941 1.3245795969000955e-17 -0.21632027285981986
vn 0.9763224567476941 1.3245795969000955e-17 -0.21632027285981986
vn 0.9763224567476941 1.3245795969000955e-17 -0.21632027285981986
vn 0.9763224567476941 1.3245795969000955e-17 -0.21632027285981986
vn 0.9763224567476941 1.3245795969000955e-17 -0.21632027285981986
vn 0.9763224567476941 1.3245795969000955e-17 -0.21632027285981986
vn 0.7307158747632764 0.6632058655904514 -0.16190210071324035
vn 0.7307158747632764 0.6632058655904514 -0.16190210071324035
vn 0.7307158747632764 0.6632058655904514 -0.16190210071324035
vn 0.6901230874459261 0.7071068946864028 -0.1540453298904426
vn 0.6901230874459261 0.7071068946864028 -0.1540453298904426
vn 0.6901230874459261 0.7071068946864028 -0.1540453298904426
vn 0 -0.7071074964419354 -0.7071060659304362
vn 0 -0.7071074964419354 -0.7071060659304362
vn 0 -0.7071074964419354 -0.7071060659304362
vn 0 -0.7071074964419354 -0.7071060659304362
vn 0 -0.7071074964419354 -0.7071060659304362
vn 0 -0.7071074964419354 -0.7071060659304362
vn 0 6.123234262925839e-17 -1
vn 0 6.123234262925839e-17 -1
vn 0 6.123234262925839e-17 -1
vn 0 6.123234262925839e-17 -1
vn 0 6.123234262925839e-17 -1
vn 0 6.123234262925839e-17 -1
vn 0 0.7071075560465184 -0.7071060063257277
vn 0 0.7071075560465184 -0.7071060063257277
vn 0 0.7071075560465184 -0.7071060063257277
vn 0 0.7071075858487741 -0.7071059765234055
vn 0 0.7071075858487741 -0.7071059765234055
vn 0 0.7071075858487741 -0.7071059765234055
vn 0 -0.7071074964419354 -0.7071060659304362
vn 0 -0.7071074964419354 -0.7071060659304362
vn 0 -0.7071074964419354 -0.7071060659304362
vn 0 -0.7071074964419354 -0.7071060659304362
vn 0 -0.7071074964419354 -0.7071060659304362
vn 0 -0.7071074964419354 -0.7071060659304362
vn 0 6.123234262925839e-17 -1
vn 0 6.123234262925839e-17 -1
vn 0 6.123234262925839e-17 -1
vn 0 6.123234262925839e-17 -1
vn 0 6.123234262925839e-17 -1
vn 0 6.123234262925839e-17 -1
vn 0 0.7071075560465184 -0.7071060063257277
vn 0 0.7071075560465184 -0.7071060063257277
vn 0 0.7071075560465184 -0.7071060063257277
vn 0 0.7071075858487741 -0.7071059765234055
vn 0 0.7071075858487741 -0.7071059765234055
vn 0 0.7071075858487741 -0.7071059765234055
f 1/1/1 2/2/2 3/3/3
f 4/4/4 5/5/5 6/6/6
f 7/7/7 8/8/8 9/9/9
f 10/10/10 11/11/11 12/12/12
f 13/13/13 14/14/14 15/15/15
f 16/16/16 17/17/17 18/18/18
f 19/19/19 20/20/20 21/21/21
f 22/22/22 23/23/23 24/24/24
f 25/25/25 26/26/26 27/27/27
f 28/28/28 29/29/29 30/30/30
f 31/31/31 32/32/32 33/33/33
f 34/34/34 35/35/35 36/36/36
f 37/37/37 38/38/38 39/39/39
f 40/40/40 41/41/41 42/42/42
f 43/43/43 44/44/44 45/45/45
f 46/46/46 47/47/47 48/48/48
f 49/49/49 50/50/50 51/51/51
f 52/52/52 53/53/53 54/54/54
f 55/55/55 56/56/56 57/57/57
f 58/58/58 59/59/59 60/60/60
f 61/61/61 62/62/62 63/63/63
f 64/64/64 65/65/65 66/66/66
f 67/67/67 68/68/68 69/69/69
f 70/70/70 71/71/71 72/72/72
f 73/73/73 74/74/74 75/75/75
f 76/76/76 77/77/77 78/78/78
f 79/79/79 80/80/80 81/81/81
f 82/82/82 83/83/83 84/84/84
f 85/85/85 86/86/86 87/87/87
f 88/88/88 89/89/89 90/90/90
f 91/91/91 92/92/92 93/93/93
f 94/94/94 95/95/95 96/96/96
f 97/97/97 98/98/98 99/99/99
f 100/100/100 101/101/101 102/102/102
f 103/103/103 104/104/104 105/105/105
f 106/106/106 107/107/107 108/108/108
f 109/109/109 110/110/110 111/111/111
f 112/112/112 113/113/113 114/114/114
f 115/115/115 116/116/116 117/117/117
f 118/118/118 119/119/119 120/120/120
f 121/121/121 122/122/122 123/123/123
f 124/124/124 125/125/125 126/126/126
f 127/127/127 128/128/128 129/129/129
f 130/130/130 131/131/131 132/132/132
o hauler_cab
usemtl plate
v 7.871428472655161 9.072857142857144 -11.185714483261108
v 7.871428472655161 9.072857142857144 -21.957142659596038
v 7.871428472655161 2.8585714285714285 -11.185714483261108
v 7.871428472655161 2.8585714285714285 -21.957142659596038
v -7.871428472655161 9.072857142857144 -21.957142659596038
v -7.871428472655161 9.072857142857144 -11.185714483261108
v -7.871428472655161 2.8585714285714285 -21.957142659596038
v -7.871428472655161 2.8585714285714285 -11.185714483261108
v -7.871428472655161 9.072857142857144 -21.957142659596038
v 7.871428472655161 9.072857142857144 -21.957142659596038
v -7.871428472655161 9.072857142857144 -11.185714483261108
v 7.871428472655161 9.072857142857144 -11.185714483261108
v -7.871428472655161 2.8585714285714285 -11.185714483261108
v 7.871428472655161 2.8585714285714285 -11.185714483261108
v -7.871428472655161 2.8585714285714285 -21.957142659596038
v 7.871428472655161 2.8585714285714285 -21.957142659596038
v -7.871428472655161 9.072857142857144 -11.185714483261108
v 7.871428472655161 9.072857142857144 -11.185714483261108
v -7.871428472655161 2.8585714285714285 -11.185714483261108
v 7.871428472655161 2.8585714285714285 -11.185714483261108
v 7.871428472655161 9.072857142857144 -21.957142659596038
v -7.871428472655161 9.072857142857144 -21.957142659596038
v 7.871428472655161 2.8585714285714285 -21.957142659596038
v -7.871428472655161 2.8585714285714285 -21.957142659596038
vt 0 1
vt 1 1
vt 0 0
vt 1 0
vt 0 1
vt 1 1
vt 0 0
vt 1 0
vt 0 1
vt 1 1
vt 0 0
vt 1 0
vt 0 1
vt 1 1
vt 0 0
vt 1 0
vt 0 1
vt 1 1
vt 0 0
vt 1 0
vt 0 1
vt 1 1
vt 0 0
vt 1 0
vn 1 0 0
vn 1 0 0
vn 1 0 0
vn 1 0 0
vn -1 0 0
vn -1 0 0
vn -1 0 0
vn -1 0 0
vn 0 1 0
vn 0 1 0
vn 0 1 0
vn 0 1 0
vn 0 -1 0
vn 0 -1 0
vn 0 -1 0
vn 0 -1 0
vn 0 0 1
vn 0 0 1
vn 0 0 1
vn 0 0 1
vn 0 0 -1
vn 0 0 -1
vn 0 0 -1
vn 0 0 -1
f 133/133/133 135/135/135 134/134/134
f 135/135/135 136/136/136 134/134/134
f 137/137/137 139/139/139 138/138/138
f 139/139/139 140/140/140 138/138/138
f 141/141/141 143/143/143 142/142/142
f 143/143/143 144/144/144 142/142/142
f 145/145/145 147/147/147 146/146/146
f 147/147/147 148/148/148 146/146/146
f 149/149/149 151/151/151 150/150/150
f 151/151/151 152/152/152 150/150/150
f 153/153/153 155/155/155 154/154/154
f 155/155/155 156/156/156 154/154/154
o hauler_cabglass
usemtl glass
v 5.799999901226589 8.285714335100993 -21.211428582540584
v 5.799999901226589 8.285714335100993 -22.20571427460228
v 5.799999901226589 5.799999950613294 -21.211428582540584
v 5.799999901226589 5.799999950613294 -22.20571427460228
v -5.799999901226589 8.285714335100993 -22.20571427460228
v -5.799999901226589 8.285714335100993 -21.211428582540584
v -5.799999901226589 5.799999950613294 -22.20571427460228
v -5.799999901226589 5.799999950613294 -21.211428582540584
v -5.799999901226589 8.285714335100993 -22.20571427460228
v 5.799999901226589 8.285714335100993 -22.20571427460228
v -5.799999901226589 8.285714335100993 -21.211428582540584
v 5.799999901226589 8.285714335100993 -21.211428582540584
v -5.799999901226589 5.799999950613294 -21.211428582540584
v 5.799999901226589 5.799999950613294 -21.211428582540584
v -5.799999901226589 5.799999950613294 -22.20571427460228
v 5.799999901226589 5.799999950613294 -22.20571427460228
v -5.799999901226589 8.285714335100993 -21.211428582540584
v 5.799999901226589 8.285714335100993 -21.211428582540584
v -5.799999901226589 5.799999950613294 -21.211428582540584
v 5.799999901226589 5.799999950613294 -21.211428582540584
v 5.799999901226589 8.285714335100993 -22.20571427460228
v -5.799999901226589 8.285714335100993 -22.20571427460228
v 5.799999901226589 5.799999950613294 -22.20571427460228
v -5.799999901226589 5.799999950613294 -22.20571427460228
vt 0 1
vt 1 1
vt 0 0
vt 1 0
vt 0 1
vt 1 1
vt 0 0
vt 1 0
vt 0 1
vt 1 1
vt 0 0
vt 1 0
vt 0 1
vt 1 1
vt 0 0
vt 1 0
vt 0 1
vt 1 1
vt 0 0
vt 1 0
vt 0 1
vt 1 1
vt 0 0
vt 1 0
vn 1 0 0
vn 1 0 0
vn 1 0 0
vn 1 0 0
vn -1 0 0
vn -1 0 0
vn -1 0 0
vn -1 0 0
vn 0 1 0
vn 0 1 0
vn 0 1 0
vn 0 1 0
vn 0 -1 0
vn 0 -1 0
vn 0 -1 0
vn 0 -1 0
vn 0 0 1
vn 0 0 1
vn 0 0 1
vn 0 0 1
vn 0 0 -1
vn 0 0 -1
vn 0 0 -1
vn 0 0 -1
f 157/157/157 159/159/159 158/158/158
f 159/159/159 160/160/160 158/158/158
f 161/161/161 163/163/163 162/162/162
f 163/163/163 164/164/164 162/162/162
f 165/165/165 167/167/167 166/166/166
f 167/167/167 168/168/168 166/166/166
f 169/169/169 171/171/171 170/170/170
f 171/171/171 172/172/172 170/170/170
f 173/173/173 175/175/175 174/174/174
f 175/175/175 176/176/176 174/174/174
f 177/177/177 179/179/179 178/178/178
f 179/179/179 180/180/180 178/178/178
o hauler_container_0
usemtl hull
v 9.528571231024607 12.635714088167465 19.885714088167465
v 9.528571231024607 12.635714088167465 4.971428768975396
v 9.528571231024607 3.9357144832611084 19.885714088167465
v 9.528571231024607 3.9357144832611084 4.971428768975396
v -9.528571231024607 12.635714088167465 4.971428768975396
v -9.528571231024607 12.635714088167465 19.885714088167465
v -9.528571231024607 3.9357144832611084 4.971428768975396
v -9.528571231024607 3.9357144832611084 19.885714088167465
v -9.528571231024607 12.635714088167465 4.971428768975396
v 9.528571231024607 12.635714088167465 4.971428768975396
v -9.528571231024607 12.635714088167465 19.885714088167465
v 9.528571231024607 12.635714088167465 19.885714088167465
v -9.528571231024607 3.9357144832611084 19.885714088167465
v 9.528571231024607 3.9357144832611084 19.885714088167465
v -9.528571231024607 3.9357144832611084 4.971428768975396
v 9.528571231024607 3.9357144832611084 4.971428768975396
v -9.528571231024607 12.635714088167465 19.885714088167465
v 9.528571231024607 12.635714088167465 19.885714088167465
v -9.528571231024607 3.9357144832611084 19.885714088167465
v 9.528571231024607 3.9357144832611084 19.885714088167465
v 9.528571231024607 12.635714088167465 4.971428768975396
v -9.528571231024607 12.635714088167465 4.971428768975396
v 9.528571231024607 3.9357144832611084 4.971428768975396
v -9.528571231024607 3.9357144832611084 4.971428768975396
vt 0 1
vt 1 1
vt 0 0
vt 1 0
vt 0 1
vt 1 1
vt 0 0
vt 1 0
vt 0 1
vt 1 1
vt 0 0
vt 1 0
vt 0 1
vt 1 1
vt 0 0
vt 1 0
vt 0 1
vt 1 1
vt 0 0
vt 1 0
vt 0 1
vt 1 1
vt 0 0
vt 1 0
vn 1 0 0
vn 1 0 0
vn 1 0 0
vn 1 0 0
vn -1 0 0
vn -1 0 0
vn -1 0 0
vn -1 0 0
vn 0 1 0
vn 0 1 0
vn 0 1 0
vn 0 1 0
vn 0 -1 0
vn 0 -1 0
vn 0 -1 0
vn 0 -1 0
vn 0 0 1
vn 0 0 1
vn 0 0 1
vn 0 0 1
vn 0 0 -1
vn 0 0 -1
vn 0 0 -1
vn 0 0 -1
f 181/181/181 183/183/183 182/182/182
f 183/183/183 184/184/184 182/182/182
f 185/185/185 187/187/187 186/186/186
f 187/187/187 188/188/188 186/186/186
f 189/189/189 191/191/191 190/190/190
f 191/191/191 192/192/192 190/190/190
f 193/193/193 195/195/195 194/194/194
f 195/195/195 196/196/196 194/194/194
f 197/197/197 199/199/199 198/198/198
f 199/199/199 200/200/200 198/198/198
f 201/201/201 203/203/203 202/202/202
f 203/203/203 204/204/204 202/202/202
o hauler_containerband_0
usemtl accent
v 9.73571389062064 12.925714280158282 13.671428620815279
v 9.73571389062064 12.925714280158282 11.185714236327582
v 9.73571389062064 12.428571434127434 13.671428620815279
v 9.73571389062064 12.428571434127434 11.185714236327582
v -9.73571389062064 12.925714280158282 11.185714236327582
v -9.73571389062064 12.925714280158282 13.671428620815279
v -9.73571389062064 12.428571434127434 11.185714236327582
v -9.73571389062064 12.428571434127434 13.671428620815279
v -9.73571389062064 12.925714280158282 11.185714236327582
v 9.73571389062064 12.925714280158282 11.185714236327582
v -9.73571389062064 12.925714280158282 13.671428620815279
v 9.73571389062064 12.925714280158282 13.671428620815279
v -9.73571389062064 12.428571434127434 13.671428620815279
v 9.73571389062064 12.428571434127434 13.671428620815279
v -9.73571389062064 12.428571434127434 11.185714236327582
v 9.73571389062064 12.428571434127434 11.185714236327582
v -9.73571389062064 12.925714280158282 13.671428620815279
v 9.73571389062064 12.925714280158282 13.671428620815279
v -9.73571389062064 12.428571434127434 13.671428620815279
v 9.73571389062064 12.428571434127434 13.671428620815279
v 9.73571389062064 12.925714280158282 11.185714236327582
v -9.73571389062064 12.925714280158282 11.185714236327582
v 9.73571389062064 12.428571434127434 11.185714236327582
v -9.73571389062064 12.428571434127434 11.185714236327582
vt 0 1
vt 1 1
vt 0 0
vt 1 0
vt 0 1
vt 1 1
vt 0 0
vt 1 0
vt 0 1
vt 1 1
vt 0 0
vt 1 0
vt 0 1
vt 1 1
vt 0 0
vt 1 0
vt 0 1
vt 1 1
vt 0 0
vt 1 0
vt 0 1
vt 1 1
vt 0 0
vt 1 0
vn 1 0 0
vn 1 0 0
vn 1 0 0
vn 1 0 0
vn -1 0 0
vn -1 0 0
vn -1 0 0
vn -1 0 0
vn 0 1 0
vn 0 1 0
vn 0 1 0
vn 0 1 0
vn 0 -1 0
vn 0 -1 0
vn 0 -1 0
vn 0 -1 0
vn 0 0 1
vn 0 0 1
vn 0 0 1
vn 0 0 1
vn 0 0 -1
vn 0 0 -1
vn 0 0 -1
vn 0 0 -1
f 205/205/205 207/207/207 206/206/206
f 207/207/207 208/208/208 206/206/206
f 209/209/209 211/211/211 210/210/210
f 211/211/211 212/212/212 210/210/210
f 213/213/213 215/215/215 214/214/214
f 215/215/215 216/216/216 214/214/214
f 217/217/217 219/219/219 218/218/218
f 219/219/219 220/220/220 218/218/218
f 221/221/221 223/223/223 222/222/222
f 223/223/223 224/224/224 222/222/222
f 225/225/225 227/227/227 226/226/226
f 227/227/227 228/228/228 226/226/226
o hauler_container_1
usemtl hull
v 9.528571231024607 12.635714088167465 2.4857140881674633
v 9.528571231024607 12.635714088167465 -12.428571231024605
v 9.528571231024607 3.9357144832611084 2.4857140881674633
v 9.528571231024607 3.9357144832611084 -12.428571231024605
v -9.528571231024607 12.635714088167465 -12.428571231024605
v -9.528571231024607 12.635714088167465 2.4857140881674633
v -9.528571231024607 3.9357144832611084 -12.428571231024605
v -9.528571231024607 3.9357144832611084 2.4857140881674633
v -9.528571231024607 12.635714088167465 -12.428571231024605
v 9.528571231024607 12.635714088167465 -12.428571231024605
v -9.528571231024607 12.635714088167465 2.4857140881674633
v 9.528571231024607 12.635714088167465 2.4857140881674633
v -9.528571231024607 3.9357144832611084 2.4857140881674633
v 9.528571231024607 3.9357144832611084 2.4857140881674633
v -9.528571231024607 3.9357144832611084 -12.428571231024605
v 9.528571231024607 3.9357144832611084 -12.428571231024605
v -9.528571231024607 12.635714088167465 2.4857140881674633
v 9.528571231024607 12.635714088167465 2.4857140881674633
v -9.528571231024607 3.9357144832611084 2.4857140881674633
v 9.528571231024607 3.9357144832611084 2.4857140881674633
v 9.528571231024607 12.635714088167465 -12.428571231024605
v -9.528571231024607 12.635714088167465 -12.428571231024605
v 9.528571231024607 3.9357144832611084 -12.428571231024605
v -9.528571231024607 3.9357144832611084 -12.428571231024605
vt 0 1
vt 1 1
vt 0 0
vt 1 0
vt 0 1
vt 1 1
vt 0 0
vt 1 0
vt 0 1
vt 1 1
vt 0 0
vt 1 0
vt 0 1
vt 1 1
vt 0 0
vt 1 0
vt 0 1
vt 1 1
vt 0 0
vt 1 0
vt 0 1
vt 1 1
vt 0 0
vt 1 0
vn 1 0 0
vn 1 0 0
vn 1 0 0
vn 1 0 0
vn -1 0 0
vn -1 0 0
vn -1 0 0
vn -1 0 0
vn 0 1 0
vn 0 1 0
vn 0 1 0
vn 0 1 0
vn 0 -1 0
vn 0 -1 0
vn 0 -1 0
vn 0 -1 0
vn 0 0 1
vn 0 0 1
vn 0 0 1
vn 0 0 1
vn 0 0 -1
vn 0 0 -1
vn 0 0 -1
vn 0 0 -1
f 229/229/229 231/231/231 230/230/230
f 231/231/231 232/232/232 230/230/230
f 233/233/233 235/235/235 234/234/234
f 235/235/235 236/236/236 234/234/234
f 237/237/237 239/239/239 238/238/238
f 239/239/239 240/240/240 238/238/238
f 241/241/241 243/243/243 242/242/242
f 243/243/243 244/244/244 242/242/242
f 245/245/245 247/247/247 246/246/246
f 247/247/247 248/248/248 246/246/246
f 249/249/249 251/251/251 250/250/250
f 251/251/251 252/252/252 250/250/250
o hauler_containerband_1
usemtl accent
v 9.73571389062064 12.925714280158282 -3.728571379184723
v 9.73571389062064 12.925714280158282 -6.21428576367242
v 9.73571389062064 12.428571434127434 -3.728571379184723
v 9.73571389062064 12.428571434127434 -6.21428576367242
v -9.73571389062064 12.925714280158282 -6.21428576367242
v -9.73571389062064 12.925714280158282 -3.728571379184723
v -9.73571389062064 12.428571434127434 -6.21428576367242
v -9.73571389062064 12.428571434127434 -3.728571379184723
v -9.73571389062064 12.925714280158282 -6.21428576367242
v 9.73571389062064 12.925714280158282 -6.21428576367242
v -9.73571389062064 12.925714280158282 -3.728571379184723
v 9.73571389062064 12.925714280158282 -3.728571379184723
v -9.73571389062064 12.428571434127434 -3.728571379184723
v 9.73571389062064 12.428571434127434 -3.728571379184723
v -9.73571389062064 12.428571434127434 -6.21428576367242
v 9.73571389062064 12.428571434127434 -6.21428576367242
v -9.73571389062064 12.925714280158282 -3.728571379184723
v 9.73571389062064 12.925714280158282 -3.728571379184723
v -9.73571389062064 12.428571434127434 -3.728571379184723
v 9.73571389062064 12.428571434127434 -3.728571379184723
v 9.73571389062064 12.925714280158282 -6.21428576367242
v -9.73571389062064 12.925714280158282 -6.21428576367242
v 9.73571389062064 12.428571434127434 -6.21428576367242
v -9.73571389062064 12.428571434127434 -6.21428576367242
vt 0 1
vt 1 1
vt 0 0
vt 1 0
vt 0 1
vt 1 1
vt 0 0
vt 1 0
vt 0 1
vt 1 1
vt 0 0
vt 1 0
vt 0 1
vt 1 1
vt 0 0
vt 1 0
vt 0 1
vt 1 1
vt 0 0
vt 1 0
vt 0 1
vt 1 1
vt 0 0
vt 1 0
vn 1 0 0
vn 1 0 0
vn 1 0 0
vn 1 0 0
vn -1 0 0
vn -1 0 0
vn -1 0 0
vn -1 0 0
vn 0 1 0
vn 0 1 0
vn 0 1 0
vn 0 1 0
vn 0 -1 0
vn 0 -1 0
vn 0 -1 0
vn 0 -1 0
vn 0 0 1
vn 0 0 1
vn 0 0 1
vn 0 0 1
vn 0 0 -1
vn 0 0 -1
vn 0 0 -1
vn 0 0 -1
f 253/253/253 255/255/255 254/254/254
f 255/255/255 256/256/256 254/254/254
f 257/257/257 259/259/259 258/258/258
f 259/259/259 260/260/260 258/258/258
f 261/261/261 263/263/263 262/262/262
f 263/263/263 264/264/264 262/262/262
f 265/265/265 267/267/267 266/266/266
f 267/267/267 268/268/268 266/266/266
f 269/269/269 271/271/271 270/270/270
f 271/271/271 272/272/272 270/270/270
f 273/273/273 275/275/275 274/274/274
f 275/275/275 276/276/276 274/274/274
o hauler_engine_nacelle
usemtl plate
v -12.42857142857143 -3.4799998913492467 32.728571428571435
v -9.967839803014485 -2.460731625556945 32.728571428571435
v -8.948571537222183 1.166760072194557e-15 32.728571428571435
v -9.967839803014485 2.4607316255569476 32.728571428571435
v -12.42857142857143 3.4799998913492494 32.728571428571435
v -14.889303054128376 2.4607316255569476 32.728571428571435
v -15.908571319920679 2.0191142624032437e-15 32.728571428571435
v -14.889303054128376 -2.460731625556945 32.728571428571435
v -12.42857142857143 -3.4799998913492467 32.728571428571435
v -12.42857142857143 -2.9928000399044596 20.300000000000004
v -10.312342200960433 -2.116229227610998 20.300000000000004
v -9.435771388666971 -1.5631047574137967e-15 20.300000000000004
v -10.312342200960433 2.1162292276109955 20.300000000000004
v -12.42857142857143 2.992800039904457 20.300000000000004
v -14.544800656182428 2.1162292276109955 20.300000000000004
v -15.42137146847589 -8.300801519152672e-16 20.300000000000004
v -14.544800656182428 -2.116229227610998 20.300000000000004
v -12.42857142857143 -2.9928000399044596 20.300000000000004
v -12.42857142857143 1.3798486163198376e-15 32.728571428571435
v -12.42857142857143 1.3798486163198376e-15 32.728571428571435
v -12.42857142857143 1.3798486163198376e-15 32.728571428571435
v -12.42857142857143 1.3798486163198376e-15 32.728571428571435
v -12.42857142857143 1.3798486163198376e-15 32.728571428571435
v -12.42857142857143 1.3798486163198376e-15 32.728571428571435
v -12.42857142857143 1.3798486163198376e-15 32.728571428571435
v -12.42857142857143 1.3798486163198376e-15 32.728571428571435
v -12.42857142857143 -3.4799998913492467 32.728571428571435
v -9.967839803014485 -2.460731625556945 32.728571428571435
v -8.948571537222183 1.166760072194557e-15 32.728571428571435
v -9.967839803014485 2.4607316255569476 32.728571428571435
v -12.42857142857143 3.4799998913492494 32.728571428571435
v -14.889303054128376 2.4607316255569476 32.728571428571435
v -15.908571319920679 2.0191142624032437e-15 32.728571428571435
v -14.889303054128376 -2.460731625556945 32.728571428571435
v -12.42857142857143 -3.4799998913492467 32.728571428571435
v -12.42857142857143 -1.3798486163198376e-15 20.300000000000004
v -12.42857142857143 -1.3798486163198376e-15 20.300000000000004
v -12.42857142857143 -1.3798486163198376e-15 20.300000000000004
v -12.42857142857143 -1.3798486163198376e-15 20.300000000000004
v -12.42857142857143 -1.3798486163198376e-15 20.300000000000004
v -12.42857142857143 -1.3798486163198376e-15 20.300000000000004
v -12.42857142857143 -1.3798486163198376e-15 20.300000000000004
v -12.42857142857143 -1.3798486163198376e-15 20.300000000000004
v -12.42857142857143 -2.9928000399044596 20.300000000000004
v -10.312342200960433 -2.116229227610998 20.300000000000004
v -9.435771388666971 -1.5631047574137967e-15 20.300000000000004
v -10.312342200960433 2.1162292276109955 20.300000000000004
v -12.42857142857143 2.992800039904457 20.300000000000004
v -14.544800656182428 2.1162292276109955 20.300000000000004
v -15.42137146847589 -8.300801519152672e-16 20.300000000000004
v -14.544800656182428 -2.116229227610998 20.300000000000004
v -12.42857142857143 -2.9928000399044596 20.300000000000004
vt 0 1
vt 0.125 1
vt 0.25 1
vt 0.375 1
vt 0.5 1
vt 0.625 1
vt 0.75 1
vt 0.875 1
vt 1 1
vt 0 0
vt 0.125 0
vt 0.25 0
vt 0.375 0
vt 0.5 0
vt 0.625 0
vt 0.75 0
vt 0.875 0
vt 1 0
vt 0.5 0.5
vt 0.5 0.5
vt 0.5 0.5
vt 0.5 0.5
vt 0.5 0.5
vt 0.5 0.5
vt 0.5 0.5
vt 0.5 0.5
vt 1 0.5
vt 0.8535534143447876 0.8535534143447876
vt 0.5 1
vt 0.1464466154575348 0.8535534143447876
vt 0 0.5
vt 0.1464466154575348 0.1464466154575348
vt 0.5 0
vt 0.8535534143447876 0.1464466154575348
vt 1 0.5
vt 0.5 0.5
vt 0.5 0.5
vt 0.5 0.5
vt 0.5 0.5
vt 0.5 0.5
vt 0.5 0.5
vt 0.5 0.5
vt 0.5 0.5
vt 1 0.5
vt 0.8535534143447876 0.1464466154575348
vt 0.5 0
vt 0.1464466154575348 0.1464466154575348
vt 0 0.5
vt 0.1464466154575348 0.8535534143447876
vt 0.5 1
vt 0.8535534143447876 0.8535534143447876
vt 1 0.5
vn 0 -0.9992325644395269 -0.039169914010713285
vn 0.7065641222790284 -0.7065641222790284 -0.0391699146811976
vn 0.9992325644395269 -6.988281203974878e-17 -0.03916991401071351
vn 0.7065641222790284 0.7065641222790284 -0.03916991468119792
vn 1.2237068791658492e-16 0.9992325644395269 -0.03916991401071373
vn -0.7065641222790284 0.7065641222790284 -0.03916991468119792
vn -0.9992325644395269 1.7485857702831049e-16 -0.03916991401071351
vn -0.7065641222790284 -0.7065641222790284 -0.0391699146811976
vn -2.4474137583316985e-16 -0.9992325644395269 -0.039169914010713285
vn 0 -0.9992325644395269 -0.039169914010713285
vn 0.7065641222790284 -0.7065641222790284 -0.0391699146811976
vn 0.9992325644395269 -6.988281203974878e-17 -0.03916991401071351
vn 0.7065641222790284 0.7065641222790284 -0.03916991468119792
vn 1.2237068791658492e-16 0.9992325644395269 -0.03916991401071373
vn -0.7065641222790284 0.7065641222790284 -0.03916991468119792
vn -0.9992325644395269 1.7485857702831049e-16 -0.03916991401071351
vn -0.7065641222790284 -0.7065641222790284 -0.0391699146811976
vn -2.4474137583316985e-16 -0.9992325644395269 -0.039169914010713285
vn 0 2.220446049250313e-16 1
vn 0 2.220446049250313e-16 1
vn 0 2.220446049250313e-16 1
vn 0 2.220446049250313e-16 1
vn 0 2.220446049250313e-16 1
vn 0 2.220446049250313e-16 1
vn 0 2.220446049250313e-16 1
vn 0 2.220446049250313e-16 1
vn 0 2.220446049250313e-16 1
vn 0 2.220446049250313e-16 1
vn 0 2.220446049250313e-16 1
vn 0 2.220446049250313e-16 1
vn 0 2.220446049250313e-16 1
vn 0 2.220446049250313e-16 1
vn 0 2.220446049250313e-16 1
vn 0 2.220446049250313e-16 1
vn 0 2.220446049250313e-16 1
vn 0 -2.220446049250313e-16 -1
vn 0 -2.220446049250313e-16 -1
vn 0 -2.220446049250313e-16 -1
vn 0 -2.220446049250313e-16 -1
vn 0 -2.220446049250313e-16 -1
vn 0 -2.220446049250313e-16 -1
vn 0 -2.220446049250313e-16 -1
vn 0 -2.220446049250313e-16 -1
vn 0 -2.220446049250313e-16 -1
vn 0 -2.220446049250313e-16 -1
vn 0 -2.220446049250313e-16 -1
vn 0 -2.220446049250313e-16 -1
vn 0 -2.220446049250313e-16 -1
vn 0 -2.220446049250313e-16 -1
vn 0 -2.220446049250313e-16 -1
vn 0 -2.220446049250313e-16 -1
vn 0 -2.220446049250313e-16 -1
f 277/277/277 286/286/286 278/278/278
f 286/286/286 287/287/287 278/278/278
f 278/278/278 287/287/287 279/279/279
f 287/287/287 288/288/288 279/279/279
f 279/279/279 288/288/288 280/280/280
f 288/288/288 289/289/289 280/280/280
f 280/280/280 289/289/289 281/281/281
f 289/289/289 290/290/290 281/281/281
f 281/281/281 290/290/290 282/282/282
f 290/290/290 291/291/291 282/282/282
f 282/282/282 291/291/291 283/283/283
f 291/291/291 292/292/292 283/283/283
f 283/283/283 292/292/292 284/284/284
f 292/292/292 293/293/293 284/284/284
f 284/284/284 293/293/293 285/285/285
f 293/293/293 294/294/294 285/285/285
f 303/303/303 304/304/304 295/295/295
f 304/304/304 305/305/305 296/296/296
f 305/305/305 306/306/306 297/297/297
f 306/306/306 307/307/307 298/298/298
f 307/307/307 308/308/308 299/299/299
f 308/308/308 309/309/309 300/300/300
f 309/309/309 310/310/310 301/301/301
f 310/310/310 311/311/311 302/302/302
f 321/321/321 320/320/320 312/312/312
f 322/322/322 321/321/321 313/313/313
f 323/323/323 322/322/322 314/314/314
f 324/324/324 323/323/323 315/315/315
f 325/325/325 324/324/324 316/316/316
f 326/326/326 325/325/325 317/317/317
f 327/327/327 326/326/326 318/318/318
f 328/328/328 327/327/327 319/319/319
o hauler_engine_bell
usemtl thruster
v -12.42857142857143 -2.5055999415261407 33.5571428633162
v -10.656844722373148 -1.7717267061982838 33.5571428633162
v -9.92297148704529 -6.143384264478972e-17 33.5571428633162
v -10.656844722373148 1.7717267061982838 33.5571428633162
v -12.42857142857143 2.5055999415261407 33.5571428633162
v -14.200298134769714 1.7717267061982838 33.5571428633162
v -14.934171370097571 5.522611370208894e-16 33.5571428633162
v -14.200298134769714 -1.7717267061982838 33.5571428633162
v -12.42857142857143 -2.5055999415261407 33.5571428633162
v -12.42857142857143 -2.5055999415261407 32.72857142239809
v -10.656844722373148 -1.7717267061982838 32.72857142239809
v -9.92297148704529 -2.454136608956143e-16 32.72857142239809
v -10.656844722373148 1.7717267061982838 32.72857142239809
v -12.42857142857143 2.5055999415261407 32.72857142239809
v -14.200298134769714 1.7717267061982838 32.72857142239809
v -14.934171370097571 3.6828131877006487e-16 32.72857142239809
v -14.200298134769714 -1.7717267061982838 32.72857142239809
v -12.42857142857143 -2.5055999415261407 32.72857142239809
v -12.42857142857143 9.198990912541228e-17 33.5571428633162
v -12.42857142857143 9.198990912541228e-17 33.5571428633162
v -12.42857142857143 9.198990912541228e-17 33.5571428633162
v -12.42857142857143 9.198990912541228e-17 33.5571428633162
v -12.42857142857143 9.198990912541228e-17 33.5571428633162
v -12.42857142857143 9.198990912541228e-17 33.5571428633162
v -12.42857142857143 9.198990912541228e-17 33.5571428633162
v -12.42857142857143 9.198990912541228e-17 33.5571428633162
v -12.42857142857143 -2.5055999415261407 33.5571428633162
v -10.656844722373148 -1.7717267061982838 33.5571428633162
v -9.92297148704529 -6.143384264478972e-17 33.5571428633162
v -10.656844722373148 1.7717267061982838 33.5571428633162
v -12.42857142857143 2.5055999415261407 33.5571428633162
v -14.200298134769714 1.7717267061982838 33.5571428633162
v -14.934171370097571 5.522611370208894e-16 33.5571428633162
v -14.200298134769714 -1.7717267061982838 33.5571428633162
v -12.42857142857143 -2.5055999415261407 33.5571428633162
v -12.42857142857143 -9.198990912541228e-17 32.72857142239809
v -12.42857142857143 -9.198990912541228e-17 32.72857142239809
v -12.42857142857143 -9.198990912541228e-17 32.72857142239809
v -12.42857142857143 -9.198990912541228e-17 32.72857142239809
v -12.42857142857143 -9.198990912541228e-17 32.72857142239809
v -12.42857142857143 -9.198990912541228e-17 32.72857142239809
v -12.42857142857143 -9.198990912541228e-17 32.72857142239809
v -12.42857142857143 -9.198990912541228e-17 32.72857142239809
v -12.42857142857143 -2.5055999415261407 32.72857142239809
v -10.656844722373148 -1.7717267061982838 32.72857142239809
v -9.92297148704529 -2.454136608956143e-16 32.72857142239809
v -10.656844722373148 1.7717267061982838 32.72857142239809
v -12.42857142857143 2.5055999415261407 32.72857142239809
v -14.200298134769714 1.7717267061982838 32.72857142239809
v -14.934171370097571 3.6828131877006487e-16 32.72857142239809
v -14.200298134769714 -1.7717267061982838 32.72857142239809
v -12.42857142857143 -2.5055999415261407 32.72857142239809
vt 0 1
vt 0.125 1
vt 0.25 1
vt 0.375 1
vt 0.5 1
vt 0.625 1
vt 0.75 1
vt 0.875 1
vt 1 1
vt 0 0
vt 0.125 0
vt 0.25 0
vt 0.375 0
vt 0.5 0
vt 0.625 0
vt 0.75 0
vt 0.875 0
vt 1 0
vt 0.5 0.5
vt 0.5 0.5
vt 0.5 0.5
vt 0.5 0.5
vt 0.5 0.5
vt 0.5 0.5
vt 0.5 0.5
vt 0.5 0.5
vt 1 0.5
vt 0.8535534143447876 0.8535534143447876
vt 0.5 1
vt 0.1464466154575348 0.8535534143447876
vt 0 0.5
vt 0.1464466154575348 0.1464466154575348
vt 0.5 0
vt 0.8535534143447876 0.1464466154575348
vt 1 0.5
vt 0.5 0.5
vt 0.5 0.5
vt 0.5 0.5
vt 0.5 0.5
vt 0.5 0.5
vt 0.5 0.5
vt 0.5 0.5
vt 0.5 0.5
vt 1 0.5
vt 0.8535534143447876 0.1464466154575348
vt 0.5 0
vt 0.1464466154575348 0.1464466154575348
vt 0 0.5
vt 0.1464466154575348 0.8535534143447876
vt 0.5 1
vt 0.8535534143447876 0.8535534143447876
vt 1 0.5
vn 0 -1 2.220446049250313e-16
vn 0.7071067811865476 -0.7071067811865476 1.5700924586837752e-16
vn 1 -6.123234262925839e-17 1.3596311327747833e-32
vn 0.7071067811865476 0.7071067811865476 -1.5700924586837752e-16
vn 1.2246468525851679e-16 1 -2.220446049250313e-16
vn -0.7071067811865476 0.7071067811865476 -1.5700924586837752e-16
vn -1 1.8369701465288538e-16 -4.078893104450762e-32
vn -0.7071067811865476 -0.7071067811865476 1.5700924586837752e-16
vn -2.4492937051703357e-16 -1 2.220446049250313e-16
vn 0 -1 2.220446049250313e-16
vn 0.7071067811865476 -0.7071067811865476 1.5700924586837752e-16
vn 1 -6.123234262925839e-17 1.3596311327747833e-32
vn 0.7071067811865476 0.7071067811865476 -1.5700924586837752e-16
vn 1.2246468525851679e-16 1 -2.220446049250313e-16
vn -0.7071067811865476 0.7071067811865476 -1.5700924586837752e-16
vn -1 1.8369701465288538e-16 -4.078893104450762e-32
vn -0.7071067811865476 -0.7071067811865476 1.5700924586837752e-16
vn -2.4492937051703357e-16 -1 2.220446049250313e-16
vn 0 2.220446049250313e-16 1
vn 0 2.220446049250313e-16 1
vn 0 2.220446049250313e-16 1
vn 0 2.220446049250313e-16 1
vn 0 2.220446049250313e-16 1
vn 0 2.220446049250313e-16 1
vn 0 2.220446049250313e-16 1
vn 0 2.220446049250313e-16 1
vn 0 2.220446049250313e-16 1
vn 0 2.220446049250313e-16 1
vn 0 2.220446049250313e-16 1
vn 0 2.220446049250313e-16 1
vn 0 2.220446049250313e-16 1
vn 0 2.220446049250313e-16 1
vn 0 2.220446049250313e-16 1
vn 0 2.220446049250313e-16 1
vn 0 2.220446049250313e-16 1
vn 0 -2.220446049250313e-16 -1
vn 0 -2.220446049250313e-16 -1
vn 0 -2.220446049250313e-16 -1
vn 0 -2.220446049250313e-16 -1
vn 0 -2.220446049250313e-16 -1
vn 0 -2.220446049250313e-16 -1
vn 0 -2.220446049250313e-16 -1
vn 0 -2.220446049250313e-16 -1
vn 0 -2.220446049250313e-16 -1
vn 0 -2.220446049250313e-16 -1
vn 0 -2.220446049250313e-16 -1
vn 0 -2.220446049250313e-16 -1
vn 0 -2.220446049250313e-16 -1
vn 0 -2.220446049250313e-16 -1
vn 0 -2.220446049250313e-16 -1
vn 0 -2.220446049250313e-16 -1
vn 0 -2.220446049250313e-16 -1
f 329/329/329 338/338/338 330/330/330
f 338/338/338 339/339/339 330/330/330
f 330/330/330 339/339/339 331/331/331
f 339/339/339 340/340/340 331/331/331
f 331/331/331 340/340/340 332/332/332
f 340/340/340 341/341/341 332/332/332
f 332/332/332 341/341/341 333/333/333
f 341/341/341 342/342/342 333/333/333
f 333/333/333 342/342/342 334/334/334
f 342/342/342 343/343/343 334/334/334
f 334/334/334 343/343/343 335/335/335
f 343/343/343 344/344/344 335/335/335
f 335/335/335 344/344/344 336/336/336
f 344/344/344 345/345/345 336/336/336
f 336/336/336 345/345/345 337/337/337
f 345/345/345 346/346/346 337/337/337
f 355/355/355 356/356/356 347/347/347
f 356/356/356 357/357/357 348/348/348
f 357/357/357 358/358/358 349/349/349
f 358/358/358 359/359/359 350/350/350
f 359/359/359 360/360/360 351/351/351
f 360/360/360 361/361/361 352/352/352
f 361/361/361 362/362/362 353/353/353
f 362/362/362 363/363/363 354/354/354
f 373/373/373 372/372/372 364/364/364
f 374/374/374 373/373/373 365/365/365
f 375/375/375 374/374/374 366/366/366
f 376/376/376 375/375/375 367/367/367
f 377/377/377 376/376/376 368/368/368
f 378/378/378 377/377/377 369/369/369
f 379/379/379 378/378/378 370/370/370
f 380/380/380 379/379/379 371/371/371
o hauler_rail
usemtl plate
v -16.985714273367613 3.728571428571429 21.54285753795079
v -16.985714273367613 3.728571428571429 -23.20000039509365
v -16.985714273367613 -0.41428571428571415 21.54285753795079
v -16.985714273367613 -0.41428571428571415 -23.20000039509365
v -18.64285715520382 3.728571428571429 -23.20000039509365
v -18.64285715520382 3.728571428571429 21.54285753795079
v -18.64285715520382 -0.41428571428571415 -23.20000039509365
v -18.64285715520382 -0.41428571428571415 21.54285753795079
v -18.64285715520382 3.728571428571429 -23.20000039509365
v -16.985714273367613 3.728571428571429 -23.20000039509365
v -18.64285715520382 3.728571428571429 21.54285753795079
v -16.985714273367613 3.728571428571429 21.54285753795079
v -18.64285715520382 -0.41428571428571415 21.54285753795079
v -16.985714273367613 -0.41428571428571415 21.54285753795079
v -18.64285715520382 -0.41428571428571415 -23.20000039509365
v -16.985714273367613 -0.41428571428571415 -23.20000039509365
v -18.64285715520382 3.728571428571429 21.54285753795079
v -16.985714273367613 3.728571428571429 21.54285753795079
v -18.64285715520382 -0.41428571428571415 21.54285753795079
v -16.985714273367613 -0.41428571428571415 21.54285753795079
v -16.985714273367613 3.728571428571429 -23.20000039509365
v -18.64285715520382 3.728571428571429 -23.20000039509365
v -16.985714273367613 -0.41428571428571415 -23.20000039509365
v -18.64285715520382 -0.41428571428571415 -23.20000039509365
vt 0 1
vt 1 1
vt 0 0
vt 1 0
vt 0 1
vt 1 1
vt 0 0
vt 1 0
vt 0 1
vt 1 1
vt 0 0
vt 1 0
vt 0 1
vt 1 1
vt 0 0
vt 1 0
vt 0 1
vt 1 1
vt 0 0
vt 1 0
vt 0 1
vt 1 1
vt 0 0
vt 1 0
vn 1 0 0
vn 1 0 0
vn 1 0 0
vn 1 0 0
vn -1 0 0
vn -1 0 0
vn -1 0 0
vn -1 0 0
vn 0 1 0
vn 0 1 0
vn 0 1 0
vn 0 1 0
vn 0 -1 0
vn 0 -1 0
vn 0 -1 0
vn 0 -1 0
vn 0 0 1
vn 0 0 1
vn 0 0 1
vn 0 0 1
vn 0 0 -1
vn 0 0 -1
vn 0 0 -1
vn 0 0 -1
f 381/381/381 383/383/383 382/382/382
f 383/383/383 384/384/384 382/382/382
f 385/385/385 387/387/387 386/386/386
f 387/387/387 388/388/388 386/386/386
f 389/389/389 391/391/391 390/390/390
f 391/391/391 392/392/392 390/390/390
f 393/393/393 395/395/395 394/394/394
f 395/395/395 396/396/396 394/394/394
f 397/397/397 399/399/399 398/398/398
f 399/399/399 400/400/400 398/398/398
f 401/401/401 403/403/403 402/402/402
f 403/403/403 404/404/404 402/402/402
o hauler_engine_nacelle
usemtl plate
v 12.42857142857143 -3.4799998913492467 32.728571428571435
v 14.889303054128376 -2.460731625556945 32.728571428571435
v 15.908571319920679 1.166760072194557e-15 32.728571428571435
v 14.889303054128376 2.4607316255569476 32.728571428571435
v 12.42857142857143 3.4799998913492494 32.728571428571435
v 9.967839803014485 2.4607316255569476 32.728571428571435
v 8.948571537222183 2.0191142624032437e-15 32.728571428571435
v 9.967839803014485 -2.460731625556945 32.728571428571435
v 12.42857142857143 -3.4799998913492467 32.728571428571435
v 12.42857142857143 -2.9928000399044596 20.300000000000004
v 14.544800656182428 -2.116229227610998 20.300000000000004
v 15.42137146847589 -1.5631047574137967e-15 20.300000000000004
v 14.544800656182428 2.1162292276109955 20.300000000000004
v 12.42857142857143 2.992800039904457 20.300000000000004
v 10.312342200960433 2.1162292276109955 20.300000000000004
v 9.435771388666971 -8.300801519152672e-16 20.300000000000004
v 10.312342200960433 -2.116229227610998 20.300000000000004
v 12.42857142857143 -2.9928000399044596 20.300000000000004
v 12.42857142857143 1.3798486163198376e-15 32.728571428571435
v 12.42857142857143 1.3798486163198376e-15 32.728571428571435
v 12.42857142857143 1.3798486163198376e-15 32.728571428571435
v 12.42857142857143 1.3798486163198376e-15 32.728571428571435
v 12.42857142857143 1.3798486163198376e-15 32.728571428571435
v 12.42857142857143 1.3798486163198376e-15 32.728571428571435
v 12.42857142857143 1.3798486163198376e-15 32.728571428571435
v 12.42857142857143 1.3798486163198376e-15 32.728571428571435
v 12.42857142857143 -3.4799998913492467 32.728571428571435
v 14.889303054128376 -2.460731625556945 32.728571428571435
v 15.908571319920679 1.166760072194557e-15 32.728571428571435
v 14.889303054128376 2.4607316255569476 32.728571428571435
v 12.42857142857143 3.4799998913492494 32.728571428571435
v 9.967839803014485 2.4607316255569476 32.728571428571435
v 8.948571537222183 2.0191142624032437e-15 32.728571428571435
v 9.967839803014485 -2.460731625556945 32.728571428571435
v 12.42857142857143 -3.4799998913492467 32.728571428571435
v 12.42857142857143 -1.3798486163198376e-15 20.300000000000004
v 12.42857142857143 -1.3798486163198376e-15 20.300000000000004
v 12.42857142857143 -1.3798486163198376e-15 20.300000000000004
v 12.42857142857143 -1.3798486163198376e-15 20.300000000000004
v 12.42857142857143 -1.3798486163198376e-15 20.300000000000004
v 12.42857142857143 -1.3798486163198376e-15 20.300000000000004
v 12.42857142857143 -1.3798486163198376e-15 20.300000000000004
v 12.42857142857143 -1.3798486163198376e-15 20.300000000000004
v 12.42857142857143 -2.9928000399044596 20.300000000000004
v 14.544800656182428 -2.116229227610998 20.300000000000004
v 15.42137146847589 -1.5631047574137967e-15 20.300000000000004
v 14.544800656182428 2.1162292276109955 20.300000000000004
v 12.42857142857143 2.992800039904457 20.300000000000004
v 10.312342200960433 2.1162292276109955 20.300000000000004
v 9.435771388666971 -8.300801519152672e-16 20.300000000000004
v 10.312342200960433 -2.116229227610998 20.300000000000004
v 12.42857142857143 -2.9928000399044596 20.300000000000004
vt 0 1
vt 0.125 1
vt 0.25 1
vt 0.375 1
vt 0.5 1
vt 0.625 1
vt 0.75 1
vt 0.875 1
vt 1 1
vt 0 0
vt 0.125 0
vt 0.25 0
vt 0.375 0
vt 0.5 0
vt 0.625 0
vt 0.75 0
vt 0.875 0
vt 1 0
vt 0.5 0.5
vt 0.5 0.5
vt 0.5 0.5
vt 0.5 0.5
vt 0.5 0.5
vt 0.5 0.5
vt 0.5 0.5
vt 0.5 0.5
vt 1 0.5
vt 0.8535534143447876 0.8535534143447876
vt 0.5 1
vt 0.1464466154575348 0.8535534143447876
vt 0 0.5
vt 0.1464466154575348 0.1464466154575348
vt 0.5 0
vt 0.8535534143447876 0.1464466154575348
vt 1 0.5
vt 0.5 0.5
vt 0.5 0.5
vt 0.5 0.5
vt 0.5 0.5
vt 0.5 0.5
vt 0.5 0.5
vt 0.5 0.5
vt 0.5 0.5
vt 1 0.5
vt 0.8535534143447876 0.1464466154575348
vt 0.5 0
vt 0.1464466154575348 0.1464466154575348
vt 0 0.5
vt 0.1464466154575348 0.8535534143447876
vt 0.5 1
vt 0.8535534143447876 0.8535534143447876
vt 1 0.5
vn 0 -0.9992325644395269 -0.039169914010713285
vn 0.7065641222790284 -0.7065641222790284 -0.0391699146811976
vn 0.9992325644395269 -6.988281203974878e-17 -0.03916991401071351
vn 0.7065641222790284 0.7065641222790284 -0.03916991468119792
vn 1.2237068791658492e-16 0.9992325644395269 -0.03916991401071373
vn -0.7065641222790284 0.7065641222790284 -0.03916991468119792
vn -0.9992325644395269 1.7485857702831049e-16 -0.03916991401071351
vn -0.7065641222790284 -0.7065641222790284 -0.0391699146811976
vn -2.4474137583316985e-16 -0.9992325644395269 -0.039169914010713285
vn 0 -0.9992325644395269 -0.039169914010713285
vn 0.7065641222790284 -0.7065641222790284 -0.0391699146811976
vn 0.9992325644395269 -6.988281203974878e-17 -0.03916991401071351
vn 0.7065641222790284 0.7065641222790284 -0.03916991468119792
vn 1.2237068791658492e-16 0.9992325644395269 -0.03916991401071373
vn -0.7065641222790284 0.7065641222790284 -0.03916991468119792
vn -0.9992325644395269 1.7485857702831049e-16 -0.03916991401071351
vn -0.7065641222790284 -0.7065641222790284 -0.0391699146811976
vn -2.4474137583316985e-16 -0.9992325644395269 -0.039169914010713285
vn 0 2.220446049250313e-16 1
vn 0 2.220446049250313e-16 1
vn 0 2.220446049250313e-16 1
vn 0 2.220446049250313e-16 1
vn 0 2.220446049250313e-16 1
vn 0 2.220446049250313e-16 1
vn 0 2.220446049250313e-16 1
vn 0 2.220446049250313e-16 1
vn 0 2.220446049250313e-16 1
vn 0 2.220446049250313e-16 1
vn 0 2.220446049250313e-16 1
vn 0 2.220446049250313e-16 1
vn 0 2.220446049250313e-16 1
vn 0 2.220446049250313e-16 1
vn 0 2.220446049250313e-16 1
vn 0 2.220446049250313e-16 1
vn 0 2.220446049250313e-16 1
vn 0 -2.220446049250313e-16 -1
vn 0 -2.220446049250313e-16 -1
vn 0 -2.220446049250313e-16 -1
vn 0 -2.220446049250313e-16 -1
vn 0 -2.220446049250313e-16 -1
vn 0 -2.220446049250313e-16 -1
vn 0 -2.220446049250313e-16 -1
vn 0 -2.220446049250313e-16 -1
vn 0 -2.220446049250313e-16 -1
vn 0 -2.220446049250313e-16 -1
vn 0 -2.220446049250313e-16 -1
vn 0 -2.220446049250313e-16 -1
vn 0 -2.220446049250313e-16 -1
vn 0 -2.220446049250313e-16 -1
vn 0 -2.220446049250313e-16 -1
vn 0 -2.220446049250313e-16 -1
vn 0 -2.220446049250313e-16 -1
f 405/405/405 414/414/414 406/406/406
f 414/414/414 415/415/415 406/406/406
f 406/406/406 415/415/415 407/407/407
f 415/415/415 416/416/416 407/407/407
f 407/407/407 416/416/416 408/408/408
f 416/416/416 417/417/417 408/408/408
f 408/408/408 417/417/417 409/409/409
f 417/417/417 418/418/418 409/409/409
f 409/409/409 418/418/418 410/410/410
f 418/418/418 419/419/419 410/410/410
f 410/410/410 419/419/419 411/411/411
f 419/419/419 420/420/420 411/411/411
f 411/411/411 420/420/420 412/412/412
f 420/420/420 421/421/421 412/412/412
f 412/412/412 421/421/421 413/413/413
f 421/421/421 422/422/422 413/413/413
f 431/431/431 432/432/432 423/423/423
f 432/432/432 433/433/433 424/424/424
f 433/433/433 434/434/434 425/425/425
f 434/434/434 435/435/435 426/426/426
f 435/435/435 436/436/436 427/427/427
f 436/436/436 437/437/437 428/428/428
f 437/437/437 438/438/438 429/429/429
f 438/438/438 439/439/439 430/430/430
f 449/449/449 448/448/448 440/440/440
f 450/450/450 449/449/449 441/441/441
f 451/451/451 450/450/450 442/442/442
f 452/452/452 451/451/451 443/443/443
f 453/453/453 452/452/452 444/444/444
f 454/454/454 453/453/453 445/445/445
f 455/455/455 454/454/454 446/446/446
f 456/456/456 455/455/455 447/447/447
o hauler_engine_bell
usemtl thruster
v 12.42857142857143 -2.5055999415261407 33.5571428633162
v 14.200298134769714 -1.7717267061982838 33.5571428633162
v 14.934171370097571 -6.143384264478972e-17 33.5571428633162
v 14.200298134769714 1.7717267061982838 33.5571428633162
v 12.42857142857143 2.5055999415261407 33.5571428633162
v 10.656844722373148 1.7717267061982838 33.5571428633162
v 9.92297148704529 5.522611370208894e-16 33.5571428633162
v 10.656844722373148 -1.7717267061982838 33.5571428633162
v 12.42857142857143 -2.5055999415261407 33.5571428633162
v 12.42857142857143 -2.5055999415261407 32.72857142239809
v 14.200298134769714 -1.7717267061982838 32.72857142239809
v 14.934171370097571 -2.454136608956143e-16 32.72857142239809
v 14.200298134769714 1.7717267061982838 32.72857142239809
v 12.42857142857143 2.5055999415261407 32.72857142239809
v 10.656844722373148 1.7717267061982838 32.72857142239809
v 9.92297148704529 3.6828131877006487e-16 32.72857142239809
v 10.656844722373148 -1.7717267061982838 32.72857142239809
v 12.42857142857143 -2.5055999415261407 32.72857142239809
v 12.42857142857143 9.198990912541228e-17 33.5571428633162
v 12.42857142857143 9.198990912541228e-17 33.5571428633162
v 12.42857142857143 9.198990912541228e-17 33.5571428633162
v 12.42857142857143 9.198990912541228e-17 33.5571428633162
v 12.42857142857143 9.198990912541228e-17 33.5571428633162
v 12.42857142857143 9.198990912541228e-17 33.5571428633162
v 12.42857142857143 9.198990912541228e-17 33.5571428633162
v 12.42857142857143 9.198990912541228e-17 33.5571428633162
v 12.42857142857143 -2.5055999415261407 33.5571428633162
v 14.200298134769714 -1.7717267061982838 33.5571428633162
v 14.934171370097571 -6.143384264478972e-17 33.5571428633162
v 14.200298134769714 1.7717267061982838 33.5571428633162
v 12.42857142857143 2.5055999415261407 33.5571428633162
v 10.656844722373148 1.7717267061982838 33.5571428633162
v 9.92297148704529 5.522611370208894e-16 33.5571428633162
v 10.656844722373148 -1.7717267061982838 33.5571428633162
v 12.42857142857143 -2.5055999415261407 33.5571428633162
v 12.42857142857143 -9.198990912541228e-17 32.72857142239809
v 12.42857142857143 -9.198990912541228e-17 32.72857142239809
v 12.42857142857143 -9.198990912541228e-17 32.72857142239809
v 12.42857142857143 -9.198990912541228e-17 32.72857142239809
v 12.42857142857143 -9.198990912541228e-17 32.72857142239809
v 12.42857142857143 -9.198990912541228e-17 32.72857142239809
v 12.42857142857143 -9.198990912541228e-17 32.72857142239809
v 12.42857142857143 -9.198990912541228e-17 32.72857142239809
v 12.42857142857143 -2.5055999415261407 32.72857142239809
v 14.200298134769714 -1.7717267061982838 32.72857142239809
v 14.934171370097571 -2.454136608956143e-16 32.72857142239809
v 14.200298134769714 1.7717267061982838 32.72857142239809
v 12.42857142857143 2.5055999415261407 32.72857142239809
v 10.656844722373148 1.7717267061982838 32.72857142239809
v 9.92297148704529 3.6828131877006487e-16 32.72857142239809
v 10.656844722373148 -1.7717267061982838 32.72857142239809
v 12.42857142857143 -2.5055999415261407 32.72857142239809
vt 0 1
vt 0.125 1
vt 0.25 1
vt 0.375 1
vt 0.5 1
vt 0.625 1
vt 0.75 1
vt 0.875 1
vt 1 1
vt 0 0
vt 0.125 0
vt 0.25 0
vt 0.375 0
vt 0.5 0
vt 0.625 0
vt 0.75 0
vt 0.875 0
vt 1 0
vt 0.5 0.5
vt 0.5 0.5
vt 0.5 0.5
vt 0.5 0.5
vt 0.5 0.5
vt 0.5 0.5
vt 0.5 0.5
vt 0.5 0.5
vt 1 0.5
vt 0.8535534143447876 0.8535534143447876
vt 0.5 1
vt 0.1464466154575348 0.8535534143447876
vt 0 0.5
vt 0.1464466154575348 0.1464466154575348
vt 0.5 0
vt 0.8535534143447876 0.1464466154575348
vt 1 0.5
vt 0.5 0.5
vt 0.5 0.5
vt 0.5 0.5
vt 0.5 0.5
vt 0.5 0.5
vt 0.5 0.5
vt 0.5 0.5
vt 0.5 0.5
vt 1 0.5
vt 0.8535534143447876 0.1464466154575348
vt 0.5 0
vt 0.1464466154575348 0.1464466154575348
vt 0 0.5
vt 0.1464466154575348 0.8535534143447876
vt 0.5 1
vt 0.8535534143447876 0.8535534143447876
vt 1 0.5
vn 0 -1 2.220446049250313e-16
vn 0.7071067811865476 -0.7071067811865476 1.5700924586837752e-16
vn 1 -6.123234262925839e-17 1.3596311327747833e-32
vn 0.7071067811865476 0.7071067811865476 -1.5700924586837752e-16
vn 1.2246468525851679e-16 1 -2.220446049250313e-16
vn -0.7071067811865476 0.7071067811865476 -1.5700924586837752e-16
vn -1 1.8369701465288538e-16 -4.078893104450762e-32
vn -0.7071067811865476 -0.7071067811865476 1.5700924586837752e-16
vn -2.4492937051703357e-16 -1 2.220446049250313e-16
vn 0 -1 2.220446049250313e-16
vn 0.7071067811865476 -0.7071067811865476 1.5700924586837752e-16
vn 1 -6.123234262925839e-17 1.3596311327747833e-32
vn 0.7071067811865476 0.7071067811865476 -1.5700924586837752e-16
vn 1.2246468525851679e-16 1 -2.220446049250313e-16
vn -0.7071067811865476 0.7071067811865476 -1.5700924586837752e-16
vn -1 1.8369701465288538e-16 -4.078893104450762e-32
vn -0.7071067811865476 -0.7071067811865476 1.5700924586837752e-16
vn -2.4492937051703357e-16 -1 2.220446049250313e-16
vn 0 2.220446049250313e-16 1
vn 0 2.220446049250313e-16 1
vn 0 2.220446049250313e-16 1
vn 0 2.220446049250313e-16 1
vn 0 2.220446049250313e-16 1
vn 0 2.220446049250313e-16 1
vn 0 2.220446049250313e-16 1
vn 0 2.220446049250313e-16 1
vn 0 2.220446049250313e-16 1
vn 0 2.220446049250313e-16 1
vn 0 2.220446049250313e-16 1
vn 0 2.220446049250313e-16 1
vn 0 2.220446049250313e-16 1
vn 0 2.220446049250313e-16 1
vn 0 2.220446049250313e-16 1
vn 0 2.220446049250313e-16 1
vn 0 2.220446049250313e-16 1
vn 0 -2.220446049250313e-16 -1
vn 0 -2.220446049250313e-16 -1
vn 0 -2.220446049250313e-16 -1
vn 0 -2.220446049250313e-16 -1
vn 0 -2.220446049250313e-16 -1
vn 0 -2.220446049250313e-16 -1
vn 0 -2.220446049250313e-16 -1
vn 0 -2.220446049250313e-16 -1
vn 0 -2.220446049250313e-16 -1
vn 0 -2.220446049250313e-16 -1
vn 0 -2.220446049250313e-16 -1
vn 0 -2.220446049250313e-16 -1
vn 0 -2.220446049250313e-16 -1
vn 0 -2.220446049250313e-16 -1
vn 0 -2.220446049250313e-16 -1
vn 0 -2.220446049250313e-16 -1
vn 0 -2.220446049250313e-16 -1
f 457/457/457 466/466/466 458/458/458
f 466/466/466 467/467/467 458/458/458
f 458/458/458 467/467/467 459/459/459
f 467/467/467 468/468/468 459/459/459
f 459/459/459 468/468/468 460/460/460
f 468/468/468 469/469/469 460/460/460
f 460/460/460 469/469/469 461/461/461
f 469/469/469 470/470/470 461/461/461
f 461/461/461 470/470/470 462/462/462
f 470/470/470 471/471/471 462/462/462
f 462/462/462 471/471/471 463/463/463
f 471/471/471 472/472/472 463/463/463
f 463/463/463 472/472/472 464/464/464
f 472/472/472 473/473/473 464/464/464
f 464/464/464 473/473/473 465/465/465
f 473/473/473 474/474/474 465/465/465
f 483/483/483 484/484/484 475/475/475
f 484/484/484 485/485/485 476/476/476
f 485/485/485 486/486/486 477/477/477
f 486/486/486 487/487/487 478/478/478
f 487/487/487 488/488/488 479/479/479
f 488/488/488 489/489/489 480/480/480
f 489/489/489 490/490/490 481/481/481
f 490/490/490 491/491/491 482/482/482
f 501/501/501 500/500/500 492/492/492
f 502/502/502 501/501/501 493/493/493
f 503/503/503 502/502/502 494/494/494
f 504/504/504 503/503/503 495/495/495
f 505/505/505 504/504/504 496/496/496
f 506/506/506 505/505/505 497/497/497
f 507/507/507 506/506/506 498/498/498
f 508/508/508 507/507/507 499/499/499
o hauler_rail
usemtl plate
v 18.64285715520382 3.728571428571429 21.54285753795079
v 18.64285715520382 3.728571428571429 -23.20000039509365
v 18.64285715520382 -0.41428571428571415 21.54285753795079
v 18.64285715520382 -0.41428571428571415 -23.20000039509365
v 16.985714273367613 3.728571428571429 -23.20000039509365
v 16.985714273367613 3.728571428571429 21.54285753795079
v 16.985714273367613 -0.41428571428571415 -23.20000039509365
v 16.985714273367613 -0.41428571428571415 21.54285753795079
v 16.985714273367613 3.728571428571429 -23.20000039509365
v 18.64285715520382 3.728571428571429 -23.20000039509365
v 16.985714273367613 3.728571428571429 21.54285753795079
v 18.64285715520382 3.728571428571429 21.54285753795079
v 16.985714273367613 -0.41428571428571415 21.54285753795079
v 18.64285715520382 -0.41428571428571415 21.54285753795079
v 16.985714273367613 -0.41428571428571415 -23.20000039509365
v 18.64285715520382 -0.41428571428571415 -23.20000039509365
v 16.985714273367613 3.728571428571429 21.54285753795079
v 18.64285715520382 3.728571428571429 21.54285753795079
v 16.985714273367613 -0.41428571428571415 21.54285753795079
v 18.64285715520382 -0.41428571428571415 21.54285753795079
v 18.64285715520382 3.728571428571429 -23.20000039509365
v 16.985714273367613 3.728571428571429 -23.20000039509365
v 18.64285715520382 -0.41428571428571415 -23.20000039509365
v 16.985714273367613 -0.41428571428571415 -23.20000039509365
vt 0 1
vt 1 1
vt 0 0
vt 1 0
vt 0 1
vt 1 1
vt 0 0
vt 1 0
vt 0 1
vt 1 1
vt 0 0
vt 1 0
vt 0 1
vt 1 1
vt 0 0
vt 1 0
vt 0 1
vt 1 1
vt 0 0
vt 1 0
vt 0 1
vt 1 1
vt 0 0
vt 1 0
vn 1 0 0
vn 1 0 0
vn 1 0 0
vn 1 0 0
vn -1 0 0
vn -1 0 0
vn -1 0 0
vn -1 0 0
vn 0 1 0
vn 0 1 0
vn 0 1 0
vn 0 1 0
vn 0 -1 0
vn 0 -1 0
vn 0 -1 0
vn 0 -1 0
vn 0 0 1
vn 0 0 1
vn 0 0 1
vn 0 0 1
vn 0 0 -1
vn 0 0 -1
vn 0 0 -1
vn 0 0 -1
f 509/509/509 511/511/511 510/510/510
f 511/511/511 512/512/512 510/510/510
f 513/513/513 515/515/515 514/514/514
f 515/515/515 516/516/516 514/514/514
f 517/517/517 519/519/519 518/518/518
f 519/519/519 520/520/520 518/518/518
f 521/521/521 523/523/523 522/522/522
f 523/523/523 524/524/524 522/522/522
f 525/525/525 527/527/527 526/526/526
f 527/527/527 528/528/528 526/526/526
f 529/529/529 531/531/531 530/530/530
f 531/531/531 532/532/532 530/530/530
